# This file uses centimeters as units for non-parametric coordinates.

mtllib b1.mtl
g default
v -10.208787 18.712307 0.024731
v -10.208787 18.684713 0.304888
v -17.658524 18.684715 0.304887
v -17.658524 18.712307 0.024730
v -10.208787 18.595781 0.598059
v -17.658524 18.595781 0.598058
v -10.208787 18.451365 0.868247
v -17.658524 18.451363 0.868246
v -10.208787 18.272774 1.085859
v -17.658524 18.272774 1.085858
v -17.658524 17.980839 0.024730
v -10.208787 17.980839 0.024731
v -17.658524 17.755548 0.568633
v -10.208787 17.755548 0.568634
v -17.658524 17.844076 0.462469
v -17.658524 17.921000 0.318554
v -17.658524 17.968369 0.162397
v -17.658524 17.755548 0.568633
v -10.208787 17.968370 0.162398
v -10.208787 17.921000 0.318555
v -10.208787 17.844076 0.462470
v -10.208787 17.755548 0.568634
vt 0.937390 0.825752
vt 0.803935 0.825752
vt 0.803935 0.821557
vt 0.937390 0.821557
vt 0.803935 0.817036
vt 0.937390 0.817036
vt 0.803935 0.812575
vt 0.937390 0.812575
vt 0.803935 0.808532
vt 0.937390 0.808532
vt 0.552810 0.027947
vt 0.552810 0.012276
vt 0.712410 0.012276
vt 0.712410 0.027947
vt 0.552810 0.027947
vt 0.552810 0.012276
vt 0.712410 0.012276
vt 0.712410 0.027947
vt 0.409179 0.232492
vt 0.396839 0.202702
vt 0.403193 0.199306
vt 0.421107 0.226117
vt 0.396236 0.236419
vt 0.383867 0.237637
vt 0.383867 0.205344
vt 0.389945 0.204794
vt 0.407880 0.195398
vt 0.430714 0.218232
vt 0.983108 0.825755
vt 0.983108 0.657471
vt 0.985965 0.657471
vt 0.985965 0.825755
vt 0.989481 0.657471
vt 0.989481 0.825755
vt 0.992996 0.657471
vt 0.992996 0.825755
vt 0.995853 0.657471
vt 0.995853 0.825755
vn -0.000000 0.995185 0.098016
vn -0.000000 0.995185 0.098016
vn -0.000000 0.980785 0.195091
vn -0.000000 0.980785 0.195091
vn -0.000000 0.980785 0.195091
vn -0.000000 0.980785 0.195091
vn -0.000000 0.923880 0.382683
vn -0.000000 0.923880 0.382683
vn -0.000000 0.923880 0.382683
vn -0.000000 0.923880 0.382683
vn -0.000000 0.831470 0.555569
vn -0.000000 0.831470 0.555569
vn -0.000000 0.831470 0.555569
vn -0.000000 0.831470 0.555569
vn -0.000000 0.773010 0.634393
vn -0.000000 0.773010 0.634393
vn 0.000000 -0.000000 -1.000000
vn 0.000000 -0.000000 -1.000000
vn 0.000000 -0.000000 -1.000000
vn 0.000000 -0.000000 -1.000000
vn -0.000000 -0.707107 0.707107
vn -0.000000 -0.707107 0.707107
vn -0.000000 -0.707107 0.707107
vn -0.000000 -0.707107 0.707107
vn -1.000000 0.000000 0.000000
vn -1.000000 0.000000 0.000000
vn -1.000000 0.000000 0.000000
vn -1.000000 0.000000 0.000000
vn -1.000000 0.000000 0.000000
vn -1.000000 0.000000 0.000000
vn -1.000000 0.000000 0.000000
vn -1.000000 0.000000 0.000000
vn -1.000000 0.000000 0.000000
vn -1.000000 0.000000 0.000000
vn -1.000000 0.000000 0.000000
vn -1.000000 0.000000 0.000000
vn -1.000000 0.000000 0.000000
vn -1.000000 0.000000 0.000000
vn -1.000000 0.000000 0.000000
vn -1.000000 0.000000 0.000000
vn 0.000000 -0.995922 -0.090213
vn 0.000000 -0.995922 -0.090213
vn 0.000000 -0.981542 -0.191246
vn 0.000000 -0.981542 -0.191246
vn 0.000000 -0.981542 -0.191246
vn 0.000000 -0.981542 -0.191246
vn 0.000000 -0.923880 -0.382682
vn 0.000000 -0.923880 -0.382682
vn 0.000000 -0.923880 -0.382682
vn 0.000000 -0.923880 -0.382682
vn 0.000000 -0.829287 -0.558822
vn 0.000000 -0.829287 -0.558822
vn 0.000000 -0.829287 -0.558822
vn 0.000000 -0.829287 -0.558822
vn 0.000000 -0.768015 -0.640432
vn 0.000000 -0.768015 -0.640432
s off
g polySurface5 final_shaft
usemtl f_sliderSG
f 1/1/1 4/2/2 3/3/3 2/4/4
f 2/4/5 3/3/6 6/5/7 5/6/8
f 5/6/9 6/5/10 8/7/11 7/8/12
f 7/8/13 8/7/14 10/9/15 9/10/16
f 1/11/17 12/12/18 11/13/19 4/14/20
f 10/15/21 13/16/22 22/17/23 9/18/24
f 6/19/25 16/20/26 15/21/27 8/22/28
f 3/23/29 4/24/30 11/25/31 17/26/32
f 6/19/33 3/23/34 17/26/35 16/20/36
f 18/27/37 10/28/38 8/22/39 15/21/40
f 11/29/41 12/30/42 19/31/43 17/32/44
f 17/32/45 19/31/46 20/33/47 16/34/48
f 16/34/49 20/33/50 21/35/51 15/36/52
f 15/36/53 21/35/54 14/37/55 18/38/56
