# This file uses centimeters as units for non-parametric coordinates.

mtllib b3.mtl
g default
v -10.208787 16.066084 1.120833
v -17.658524 16.066082 1.120832
v -17.658524 16.283695 1.299422
v -10.208787 16.283695 1.299423
v -17.658524 16.553883 1.443841
v -10.208787 16.553885 1.443841
v -17.658524 16.847055 1.532773
v -10.208787 16.847055 1.532773
v -17.658524 17.127211 1.560366
v -10.208787 17.127213 1.560367
v -17.658524 16.989544 0.816428
v -17.658524 16.833385 0.769058
v -17.658524 16.689472 0.692134
v -17.658524 16.583307 0.603607
v -17.658524 17.127213 0.828899
v -10.208787 16.583309 0.603608
v -10.208787 17.127213 0.828900
v -10.208787 16.989544 0.816429
v -10.208787 16.833387 0.769060
v -10.208787 16.689472 0.692135
vt 0.937390 0.774789
vt 0.937390 0.778667
vt 0.803935 0.778667
vt 0.803935 0.774789
vt 0.937390 0.782856
vt 0.803935 0.782856
vt 0.937390 0.787026
vt 0.803935 0.787026
vt 0.937390 0.790856
vt 0.803935 0.790856
vt 0.418819 0.161581
vt 0.416728 0.154687
vt 0.446518 0.142347
vt 0.450444 0.155290
vt 0.409424 0.143646
vt 0.432258 0.120812
vt 0.440142 0.130419
vt 0.413332 0.148333
vt 0.451662 0.167658
vt 0.419370 0.167658
vt 0.712410 0.012276
vt 0.712410 0.027947
vt 0.552810 0.027947
vt 0.552810 0.012276
vt 0.552810 0.027947
vt 0.552810 0.012276
vt 0.712410 0.012276
vt 0.712410 0.027947
vt 0.956351 0.825967
vt 0.953365 0.825967
vt 0.953365 0.657368
vt 0.956351 0.657368
vt 0.960027 0.825967
vt 0.960027 0.657368
vt 0.963702 0.825967
vt 0.963702 0.657368
vt 0.966688 0.825967
vt 0.966688 0.657368
vn -0.000000 -0.634393 0.773011
vn -0.000000 -0.555570 0.831470
vn -0.000000 -0.555570 0.831470
vn -0.000000 -0.634393 0.773011
vn -0.000000 -0.555570 0.831470
vn -0.000000 -0.382683 0.923880
vn -0.000000 -0.382683 0.923880
vn -0.000000 -0.555570 0.831470
vn -0.000000 -0.382683 0.923880
vn -0.000000 -0.195090 0.980785
vn -0.000000 -0.195090 0.980785
vn -0.000000 -0.382683 0.923880
vn -0.000000 -0.195090 0.980785
vn -0.000000 -0.098017 0.995185
vn -0.000000 -0.098017 0.995185
vn -0.000000 -0.195090 0.980785
vn -1.000000 0.000000 0.000000
vn -1.000000 0.000000 0.000000
vn -1.000000 0.000000 0.000000
vn -1.000000 0.000000 0.000000
vn -1.000000 0.000000 0.000000
vn -1.000000 0.000000 0.000000
vn -1.000000 0.000000 0.000000
vn -1.000000 0.000000 0.000000
vn -1.000000 0.000000 0.000000
vn -1.000000 0.000000 0.000000
vn -1.000000 0.000000 0.000000
vn -1.000000 0.000000 0.000000
vn -1.000000 0.000000 0.000000
vn -1.000000 0.000000 0.000000
vn -1.000000 0.000000 0.000000
vn -1.000000 0.000000 0.000000
vn 0.000000 -0.707107 -0.707107
vn 0.000000 -0.707107 -0.707107
vn 0.000000 -0.707107 -0.707107
vn 0.000000 -0.707107 -0.707107
vn 0.000000 1.000000 0.000000
vn 0.000000 1.000000 0.000000
vn 0.000000 1.000000 0.000000
vn 0.000000 1.000000 0.000000
vn 0.000000 0.191246 -0.981542
vn 0.000000 0.090216 -0.995922
vn 0.000000 0.090216 -0.995922
vn 0.000000 0.191246 -0.981542
vn 0.000000 0.382682 -0.923880
vn 0.000000 0.191246 -0.981542
vn 0.000000 0.191246 -0.981542
vn 0.000000 0.382682 -0.923880
vn 0.000000 0.558824 -0.829286
vn 0.000000 0.382682 -0.923880
vn 0.000000 0.382682 -0.923880
vn 0.000000 0.558824 -0.829286
vn 0.000000 0.640433 -0.768014
vn 0.000000 0.558824 -0.829286
vn 0.000000 0.558824 -0.829286
vn 0.000000 0.640433 -0.768014
s off
g polySurface8 final_shaft
usemtl f_sliderSG
f 1/1/1 4/2/2 3/3/3 2/4/4
f 4/2/5 6/5/6 5/6/7 3/3/8
f 6/5/9 8/7/10 7/8/11 5/6/12
f 8/7/13 10/9/14 9/10/15 7/8/16
f 11/11/17 12/12/18 5/13/19 7/14/20
f 14/15/21 2/16/22 3/17/23 13/18/24
f 13/18/25 3/17/26 5/13/27 12/12/28
f 7/14/29 9/19/30 15/20/31 11/11/32
f 2/21/33 14/22/34 16/23/35 1/24/36
f 15/25/37 9/26/38 10/27/39 17/28/40
f 11/29/41 15/30/42 17/31/43 18/32/44
f 12/33/45 11/29/46 18/32/47 19/34/48
f 13/35/49 12/33/50 19/34/51 20/36/52
f 14/37/53 13/35/54 20/36/55 16/38/56
