# This file uses centimeters as units for non-parametric coordinates.

mtllib b4.mtl
g default
v -10.208787 15.591576 0.024731
v -17.658524 15.591576 0.024730
v -17.658524 15.619168 0.304887
v -10.208787 15.619168 0.304888
v -17.658524 15.708100 0.598058
v -10.208787 15.708102 0.598059
v -17.658524 15.852519 0.868246
v -10.208787 15.852518 0.868247
v -17.658524 16.031109 1.085858
v -10.208787 16.031109 1.085859
v -10.208787 16.323042 0.024731
v -17.658524 16.323042 0.024730
v -10.208787 16.548334 0.568634
v -17.658524 16.548334 0.568633
v -17.658524 16.382881 0.318554
v -17.658524 16.459806 0.462469
v -17.658524 16.335512 0.162397
v -17.658524 16.548334 0.568633
v -10.208787 16.335514 0.162398
v -10.208787 16.382883 0.318555
v -10.208787 16.459806 0.462470
v -10.208787 16.548334 0.568634
vt 0.937390 0.757528
vt 0.937390 0.761546
vt 0.803935 0.761546
vt 0.803935 0.757528
vt 0.937390 0.765886
vt 0.803935 0.765886
vt 0.937390 0.770188
vt 0.803935 0.770188
vt 0.937390 0.774105
vt 0.803935 0.774105
vt 0.552810 0.012276
vt 0.712410 0.012276
vt 0.712410 0.027947
vt 0.552810 0.027947
vt 0.552810 0.012276
vt 0.712410 0.012276
vt 0.712410 0.027947
vt 0.552810 0.027947
vt 0.403193 0.138194
vt 0.396839 0.134798
vt 0.409179 0.105008
vt 0.421107 0.111383
vt 0.396236 0.101082
vt 0.389945 0.132707
vt 0.383867 0.132156
vt 0.383867 0.099863
vt 0.430714 0.119268
vt 0.407880 0.142102
vt 0.981362 0.825967
vt 0.978375 0.825967
vt 0.978375 0.657368
vt 0.981362 0.657368
vt 0.974700 0.825967
vt 0.974700 0.657368
vt 0.971025 0.825967
vt 0.971025 0.657368
vt 0.968038 0.825967
vt 0.968038 0.657368
vn -0.000000 -0.995185 0.098016
vn -0.000000 -0.980785 0.195091
vn -0.000000 -0.980785 0.195091
vn -0.000000 -0.995185 0.098016
vn -0.000000 -0.980785 0.195091
vn -0.000000 -0.923880 0.382683
vn -0.000000 -0.923880 0.382683
vn -0.000000 -0.980785 0.195091
vn -0.000000 -0.923880 0.382683
vn -0.000000 -0.831470 0.555570
vn -0.000000 -0.831470 0.555569
vn -0.000000 -0.923880 0.382683
vn -0.000000 -0.831470 0.555570
vn -0.000000 -0.773010 0.634393
vn -0.000000 -0.773010 0.634393
vn -0.000000 -0.831470 0.555569
vn 0.000000 0.000000 -1.000000
vn 0.000000 0.000000 -1.000000
vn 0.000000 0.000000 -1.000000
vn 0.000000 0.000000 -1.000000
vn -0.000000 0.707107 0.707107
vn -0.000000 0.707107 0.707107
vn -0.000000 0.707107 0.707107
vn -0.000000 0.707107 0.707107
vn -1.000000 0.000000 0.000000
vn -1.000000 0.000000 0.000000
vn -1.000000 0.000000 0.000000
vn -1.000000 0.000000 0.000000
vn -1.000000 0.000000 0.000000
vn -1.000000 0.000000 0.000000
vn -1.000000 0.000000 0.000000
vn -1.000000 0.000000 0.000000
vn -1.000000 0.000000 0.000000
vn -1.000000 0.000000 0.000000
vn -1.000000 0.000000 0.000000
vn -1.000000 0.000000 0.000000
vn -1.000000 0.000000 0.000000
vn -1.000000 0.000000 0.000000
vn -1.000000 0.000000 0.000000
vn -1.000000 0.000000 0.000000
vn -0.000000 0.995923 -0.090210
vn -0.000000 0.981543 -0.191244
vn -0.000000 0.981543 -0.191244
vn -0.000000 0.995923 -0.090210
vn -0.000000 0.981543 -0.191244
vn -0.000000 0.923880 -0.382683
vn -0.000000 0.923880 -0.382683
vn -0.000000 0.981543 -0.191244
vn -0.000000 0.923880 -0.382683
vn 0.000000 0.829287 -0.558823
vn 0.000000 0.829287 -0.558823
vn -0.000000 0.923880 -0.382683
vn 0.000000 0.829287 -0.558823
vn 0.000000 0.768015 -0.640432
vn 0.000000 0.768015 -0.640432
vn 0.000000 0.829287 -0.558823
s off
g polySurface7 final_shaft
usemtl f_sliderSG
f 1/1/1 4/2/2 3/3/3 2/4/4
f 4/2/5 6/5/6 5/6/7 3/3/8
f 6/5/9 8/7/10 7/8/11 5/6/12
f 8/7/13 10/9/14 9/10/15 7/8/16
f 1/11/17 2/12/18 12/13/19 11/14/20
f 9/15/21 10/16/22 22/17/23 14/18/24
f 16/19/25 15/20/26 5/21/27 7/22/28
f 3/23/29 17/24/30 12/25/31 2/26/32
f 5/21/33 15/20/34 17/24/35 3/23/36
f 7/22/37 9/27/38 18/28/39 16/19/40
f 12/29/41 17/30/42 19/31/43 11/32/44
f 17/30/45 15/33/46 20/34/47 19/31/48
f 15/33/49 16/35/50 21/36/51 20/34/52
f 16/35/53 18/37/54 13/38/55 21/36/56
