# This file uses centimeters as units for non-parametric coordinates.

mtllib b6.mtl
g default
v -10.208787 16.066084 -1.120832
v -10.208787 16.283695 -1.299422
v -17.658524 16.283695 -1.299421
v -17.658524 16.066084 -1.120831
v -10.208787 16.553885 -1.443840
v -17.658524 16.553885 -1.443839
v -10.208787 16.847055 -1.532772
v -17.658524 16.847055 -1.532772
v -10.208787 17.127213 -1.560366
v -17.658524 17.127213 -1.560365
v -17.658524 16.989544 -0.816427
v -17.658524 16.833387 -0.769058
v -17.658524 16.689472 -0.692133
v -17.658524 16.583309 -0.603606
v -17.658524 17.127213 -0.828898
v -10.208787 16.583309 -0.603607
v -10.208787 17.127213 -0.828899
v -10.208787 16.989544 -0.816428
v -10.208787 16.833385 -0.769059
v -10.208787 16.689472 -0.692134
vt 0.937371 0.808680
vt 0.804123 0.808680
vt 0.804123 0.804774
vt 0.937371 0.804774
vt 0.804123 0.800536
vt 0.937371 0.800536
vt 0.804123 0.796303
vt 0.937371 0.796303
vt 0.804123 0.792408
vt 0.937371 0.792408
vt 0.346732 0.161581
vt 0.315107 0.155290
vt 0.319033 0.142347
vt 0.348823 0.154687
vt 0.325409 0.130419
vt 0.333293 0.120812
vt 0.356128 0.143646
vt 0.352219 0.148333
vt 0.346182 0.167658
vt 0.313889 0.167658
vt 0.552810 0.012276
vt 0.712410 0.012276
vt 0.712410 0.027947
vt 0.552810 0.027947
vt 0.552810 0.012276
vt 0.712410 0.012276
vt 0.712410 0.027947
vt 0.552810 0.027947
vt 0.971381 0.657471
vt 0.971381 0.825755
vt 0.968524 0.825755
vt 0.968524 0.657471
vt 0.974896 0.657471
vt 0.974896 0.825755
vt 0.978412 0.657471
vt 0.978412 0.825755
vt 0.981268 0.657471
vt 0.981268 0.825755
vn -0.000000 -0.634395 -0.773009
vn -0.000000 -0.634395 -0.773009
vn -0.000000 -0.555570 -0.831470
vn -0.000000 -0.555570 -0.831470
vn -0.000000 -0.555570 -0.831470
vn -0.000000 -0.555570 -0.831470
vn -0.000000 -0.382682 -0.923880
vn -0.000000 -0.382682 -0.923880
vn -0.000000 -0.382682 -0.923880
vn -0.000000 -0.382682 -0.923880
vn -0.000000 -0.195091 -0.980785
vn -0.000000 -0.195091 -0.980785
vn -0.000000 -0.195091 -0.980785
vn -0.000000 -0.195091 -0.980785
vn -0.000000 -0.098018 -0.995185
vn -0.000000 -0.098018 -0.995185
vn -1.000000 0.000000 0.000000
vn -1.000000 0.000000 0.000000
vn -1.000000 0.000000 0.000000
vn -1.000000 0.000000 0.000000
vn -1.000000 0.000000 0.000000
vn -1.000000 0.000000 0.000000
vn -1.000000 0.000000 0.000000
vn -1.000000 0.000000 0.000000
vn -1.000000 0.000000 0.000000
vn -1.000000 0.000000 0.000000
vn -1.000000 0.000000 0.000000
vn -1.000000 0.000000 0.000000
vn -1.000000 0.000000 0.000000
vn -1.000000 0.000000 0.000000
vn -1.000000 0.000000 0.000000
vn -1.000000 0.000000 0.000000
vn 0.000000 -0.707107 0.707107
vn 0.000000 -0.707107 0.707107
vn 0.000000 -0.707107 0.707107
vn 0.000000 -0.707107 0.707107
vn 0.000000 1.000000 0.000000
vn 0.000000 1.000000 0.000000
vn 0.000000 1.000000 0.000000
vn 0.000000 1.000000 0.000000
vn 0.000000 0.191246 0.981542
vn 0.000000 0.191246 0.981542
vn 0.000000 0.090215 0.995922
vn 0.000000 0.090215 0.995922
vn 0.000000 0.382683 0.923880
vn 0.000000 0.382683 0.923880
vn 0.000000 0.191246 0.981542
vn 0.000000 0.191246 0.981542
vn 0.000000 0.558824 0.829286
vn 0.000000 0.558824 0.829286
vn 0.000000 0.382683 0.923880
vn 0.000000 0.382683 0.923880
vn 0.000000 0.640433 0.768014
vn 0.000000 0.640433 0.768014
vn 0.000000 0.558824 0.829286
vn 0.000000 0.558824 0.829286
s off
g polySurface12 final_shaft
usemtl f_sliderSG
f 1/1/1 4/2/2 3/3/3 2/4/4
f 2/4/5 3/3/6 6/5/7 5/6/8
f 5/6/9 6/5/10 8/7/11 7/8/12
f 7/8/13 8/7/14 10/9/15 9/10/16
f 11/11/17 8/12/18 6/13/19 12/14/20
f 3/15/21 4/16/22 14/17/23 13/18/24
f 6/13/25 3/15/26 13/18/27 12/14/28
f 8/12/29 11/11/30 15/19/31 10/20/32
f 4/21/33 1/22/34 16/23/35 14/24/36
f 15/25/37 17/26/38 9/27/39 10/28/40
f 11/29/41 18/30/42 17/31/43 15/32/44
f 12/33/45 19/34/46 18/30/47 11/29/48
f 13/35/49 20/36/50 19/34/51 12/33/52
f 14/37/53 16/38/54 20/36/55 13/35/56
