# This file uses centimeters as units for non-parametric coordinates.

mtllib b8.mtl
g default
v -10.208787 18.712307 -0.024730
v -17.658524 18.712307 -0.024729
v -17.658524 18.684715 -0.304886
v -10.208787 18.684715 -0.304887
v -17.658524 18.595781 -0.598057
v -10.208787 18.595781 -0.598058
v -17.658524 18.451365 -0.868245
v -10.208787 18.451365 -0.868246
v -17.658524 18.272774 -1.085857
v -10.208787 18.272774 -1.085858
v -10.208787 17.980841 -0.024730
v -17.658524 17.980841 -0.024729
v -17.658524 17.755548 -0.568632
v -10.208787 17.755548 -0.568633
v -17.658524 17.921000 -0.318553
v -17.658524 17.844076 -0.462468
v -17.658524 17.968370 -0.162396
v -17.658524 17.755548 -0.568632
v -10.208787 17.968370 -0.162397
v -10.208787 17.921000 -0.318554
v -10.208787 17.844076 -0.462469
v -10.208787 17.755548 -0.568633
vt 0.937371 0.757417
vt 0.937371 0.761516
vt 0.804123 0.761516
vt 0.804122 0.757417
vt 0.937371 0.765976
vt 0.804123 0.765976
vt 0.937371 0.770418
vt 0.804123 0.770418
vt 0.937371 0.774474
vt 0.804123 0.774474
vt 0.712410 0.027947
vt 0.552810 0.027947
vt 0.552810 0.012276
vt 0.712410 0.012276
vt 0.712410 0.027947
vt 0.552810 0.027947
vt 0.552810 0.012276
vt 0.712410 0.012276
vt 0.362359 0.199306
vt 0.368712 0.202702
vt 0.356373 0.232492
vt 0.344445 0.226117
vt 0.369316 0.236419
vt 0.375606 0.204794
vt 0.381684 0.205344
vt 0.381684 0.237637
vt 0.334837 0.218232
vt 0.357672 0.195398
vt 0.953174 0.657471
vt 0.956031 0.657471
vt 0.956031 0.825755
vt 0.953174 0.825755
vt 0.959547 0.657471
vt 0.959547 0.825755
vt 0.963062 0.657471
vt 0.963062 0.825755
vt 0.965919 0.657471
vt 0.965919 0.825755
vn -0.000000 0.995185 -0.098012
vn -0.000000 0.980785 -0.195090
vn -0.000000 0.980785 -0.195090
vn -0.000000 0.995185 -0.098012
vn -0.000000 0.980785 -0.195090
vn -0.000000 0.923880 -0.382683
vn -0.000000 0.923880 -0.382683
vn -0.000000 0.980785 -0.195090
vn -0.000000 0.923880 -0.382683
vn -0.000000 0.831470 -0.555569
vn -0.000000 0.831470 -0.555569
vn -0.000000 0.923880 -0.382683
vn -0.000000 0.831470 -0.555569
vn -0.000000 0.773009 -0.634396
vn -0.000000 0.773009 -0.634396
vn -0.000000 0.831470 -0.555569
vn 0.000000 -0.000000 1.000000
vn 0.000000 -0.000000 1.000000
vn 0.000000 -0.000000 1.000000
vn 0.000000 -0.000000 1.000000
vn -0.000000 -0.707107 -0.707107
vn -0.000000 -0.707107 -0.707107
vn -0.000000 -0.707107 -0.707107
vn -0.000000 -0.707107 -0.707107
vn -1.000000 0.000000 0.000000
vn -1.000000 0.000000 0.000000
vn -1.000000 0.000000 0.000000
vn -1.000000 0.000000 0.000000
vn -1.000000 0.000000 0.000000
vn -1.000000 0.000000 0.000000
vn -1.000000 0.000000 0.000000
vn -1.000000 0.000000 0.000000
vn -1.000000 0.000000 0.000000
vn -1.000000 0.000000 0.000000
vn -1.000000 0.000000 0.000000
vn -1.000000 0.000000 0.000000
vn -1.000000 0.000000 0.000000
vn -1.000000 0.000000 0.000000
vn -1.000000 0.000000 0.000000
vn -1.000000 0.000000 0.000000
vn 0.000000 -0.995922 0.090213
vn 0.000000 -0.981542 0.191248
vn 0.000000 -0.981542 0.191248
vn 0.000000 -0.995922 0.090213
vn 0.000000 -0.981542 0.191248
vn 0.000000 -0.923879 0.382685
vn 0.000000 -0.923879 0.382685
vn 0.000000 -0.981542 0.191248
vn 0.000000 -0.923879 0.382685
vn 0.000000 -0.829288 0.558822
vn 0.000000 -0.829288 0.558822
vn 0.000000 -0.923879 0.382685
vn 0.000000 -0.829288 0.558822
vn 0.000000 -0.768015 0.640432
vn 0.000000 -0.768015 0.640432
vn 0.000000 -0.829288 0.558822
s off
g polySurface9 final_shaft
usemtl f_sliderSG
f 1/1/1 4/2/2 3/3/3 2/4/4
f 4/2/5 6/5/6 5/6/7 3/3/8
f 6/5/9 8/7/10 7/8/11 5/6/12
f 8/7/13 10/9/14 9/10/15 7/8/16
f 1/11/17 2/12/18 12/13/19 11/14/20
f 9/15/21 10/16/22 14/17/23 13/18/24
f 16/19/25 15/20/26 5/21/27 7/22/28
f 3/23/29 17/24/30 12/25/31 2/26/32
f 5/21/33 15/20/34 17/24/35 3/23/36
f 7/22/37 9/27/38 18/28/39 16/19/40
f 12/29/41 17/30/42 19/31/43 11/32/44
f 17/30/45 15/33/46 20/34/47 19/31/48
f 15/33/49 16/35/50 21/36/51 20/34/52
f 16/35/53 18/37/54 22/38/55 21/36/56
