# This file uses centimeters as units for non-parametric coordinates.

mtllib innertube.mtl
g default
v -10.330723 17.151943 1.548114
v -10.330723 16.622458 1.454751
v -10.330723 16.156834 1.185924
v -10.330723 15.811236 0.774057
v -10.330723 15.627348 0.268826
v -10.330723 15.627348 -0.268828
v -10.330723 15.811236 -0.774058
v -10.330723 16.156834 -1.185925
v -10.330724 16.622456 -1.454753
v -10.330723 17.151943 -1.548115
v -10.330724 17.681429 -1.454753
v -10.330723 18.147051 -1.185925
v -10.330723 18.492649 -0.774059
v -10.330723 18.676538 -0.268829
v -10.330723 18.676538 0.268826
v -10.330723 18.492651 0.774056
v -10.330723 18.147053 1.185923
v -10.330723 17.681431 1.454751
v 6.087097 17.151941 2.425257
v 6.496430 16.177395 2.278996
v 6.856395 15.320393 1.857853
v 7.123573 14.684303 1.212626
v 7.265733 14.345846 0.421137
v 7.265733 14.345846 -0.421146
v 7.123572 14.684303 -1.212635
v 6.856396 15.320393 -1.857862
v 6.496431 16.177395 -2.279005
v 6.087096 17.151941 -2.425266
v 5.677760 18.126488 -2.279005
v 5.317795 18.983490 -1.857862
v 5.050620 19.619581 -1.212635
v 4.908458 19.958038 -0.421146
v 4.908458 19.958038 0.421137
v 5.050620 19.619583 1.212626
v 5.317794 18.983492 1.857853
v 5.677758 18.126492 2.278996
v 4.466412 14.333241 -2.344084
v 4.466413 14.333241 2.344072
v 4.466412 20.495743 -2.344084
v 4.466413 20.495743 2.344072
vt 0.042783 0.900549
vt 0.040178 0.900549
vt 0.037572 0.900549
vt 0.034966 0.900549
vt 0.032361 0.900549
vt 0.029755 0.900549
vt 0.027150 0.900549
vt 0.024544 0.900549
vt 0.021939 0.900549
vt 0.019333 0.900549
vt 0.016728 0.900549
vt 0.014122 0.900549
vt 0.011516 0.900549
vt 0.008911 0.900549
vt 0.053205 0.900549
vt 0.050600 0.900549
vt 0.047994 0.900549
vt 0.045389 0.900549
vt 0.042783 0.947449
vt 0.040178 0.947449
vt 0.037572 0.947449
vt 0.034966 0.947449
vt 0.032361 0.947449
vt 0.029755 0.947449
vt 0.027150 0.947449
vt 0.024544 0.947449
vt 0.021939 0.947449
vt 0.019333 0.947449
vt 0.016728 0.947449
vt 0.014122 0.947449
vt 0.011516 0.947449
vt 0.008911 0.947449
vt 0.053205 0.947449
vt 0.050600 0.947449
vt 0.047994 0.947449
vt 0.045389 0.947449
vt 0.006305 0.900549
vt 0.006305 0.947449
vt 0.055854 0.900874
vt 0.099725 0.900874
vt 0.055854 0.944745
vt 0.099725 0.944745
vn -0.053896 -0.014310 0.998444
vn -0.055279 -0.325897 0.943788
vn -0.055733 -0.364762 0.929431
vn -0.053704 -0.054238 0.997083
vn -0.055279 -0.325897 0.943788
vn -0.060794 -0.614329 0.786704
vn -0.061554 -0.644862 0.761817
vn -0.055733 -0.364762 0.929431
vn -0.060794 -0.614329 0.786704
vn -0.067735 -0.846649 0.527824
vn -0.068260 -0.862258 0.501848
vn -0.061554 -0.644862 0.761817
vn -0.067735 -0.846649 0.527824
vn -0.072551 -0.979715 0.186802
vn -0.072632 -0.981843 0.175242
vn -0.068260 -0.862258 0.501848
vn -0.072551 -0.979715 0.186802
vn -0.072551 -0.979715 -0.186802
vn -0.072632 -0.981843 -0.175242
vn -0.072632 -0.981843 0.175242
vn -0.072551 -0.979715 -0.186802
vn -0.067735 -0.846649 -0.527824
vn -0.068260 -0.862258 -0.501848
vn -0.072632 -0.981843 -0.175242
vn -0.067735 -0.846649 -0.527824
vn -0.060795 -0.614329 -0.786704
vn -0.061554 -0.644861 -0.761817
vn -0.068260 -0.862258 -0.501848
vn -0.060795 -0.614329 -0.786704
vn -0.055279 -0.325897 -0.943788
vn -0.055733 -0.364762 -0.929431
vn -0.061554 -0.644861 -0.761817
vn -0.055279 -0.325897 -0.943788
vn -0.053896 -0.014311 -0.998444
vn -0.053704 -0.054238 -0.997083
vn -0.055733 -0.364762 -0.929431
vn -0.053896 -0.014311 -0.998444
vn -0.057792 0.298827 -0.952556
vn -0.057008 0.263588 -0.962949
vn -0.053704 -0.054238 -0.997083
vn -0.057792 0.298827 -0.952556
vn -0.066239 0.592910 -0.802540
vn -0.065275 0.567261 -0.820947
vn -0.057008 0.263588 -0.962949
vn -0.066239 0.592910 -0.802540
vn -0.076331 0.835258 -0.544535
vn -0.075724 0.822740 -0.563351
vn -0.065275 0.567261 -0.820947
vn -0.076331 0.835258 -0.544535
vn -0.083379 0.977408 -0.194222
vn -0.083289 0.975738 -0.202482
vn -0.075724 0.822740 -0.563351
vn -0.083379 0.977408 -0.194222
vn -0.083379 0.977408 0.194221
vn -0.083289 0.975738 0.202481
vn -0.083289 0.975738 -0.202482
vn -0.083379 0.977408 0.194221
vn -0.076330 0.835258 0.544535
vn -0.075724 0.822741 0.563351
vn -0.083289 0.975738 0.202481
vn -0.076330 0.835258 0.544535
vn -0.066238 0.592911 0.802539
vn -0.065275 0.567262 0.820946
vn -0.075724 0.822741 0.563351
vn -0.066238 0.592911 0.802539
vn -0.057791 0.298827 0.952556
vn -0.057007 0.263589 0.962949
vn -0.065275 0.567262 0.820946
vn -0.057791 0.298827 0.952556
vn -0.053896 -0.014310 0.998444
vn -0.053704 -0.054238 0.997083
vn -0.057007 0.263589 0.962949
vn -1.000000 -0.000000 0.000000
vn -1.000000 -0.000000 0.000000
vn -1.000000 -0.000000 0.000000
vn -1.000000 -0.000000 0.000000
s off
g f_unsean
usemtl f_sliderSG
f 1/1/1 2/2/2 20/20/3 19/19/4
f 2/2/5 3/3/6 21/21/7 20/20/8
f 3/3/9 4/4/10 22/22/11 21/21/12
f 4/4/13 5/5/14 23/23/15 22/22/16
f 5/5/17 6/6/18 24/24/19 23/23/20
f 6/6/21 7/7/22 25/25/23 24/24/24
f 7/7/25 8/8/26 26/26/27 25/25/28
f 8/8/29 9/9/30 27/27/31 26/26/32
f 9/9/33 10/10/34 28/28/35 27/27/36
f 10/10/37 11/11/38 29/29/39 28/28/40
f 11/11/41 12/12/42 30/30/43 29/29/44
f 12/12/45 13/13/46 31/31/47 30/30/48
f 13/13/49 14/14/50 32/32/51 31/31/52
f 14/14/53 15/37/54 33/38/55 32/32/56
f 15/15/57 16/16/58 34/34/59 33/33/60
f 16/16/61 17/17/62 35/35/63 34/34/64
f 17/17/65 18/18/66 36/36/67 35/35/68
f 18/18/69 1/1/70 19/19/71 36/36/72
f 37/39/73 38/40/74 40/42/75 39/41/76
