# This file uses centimeters as units for non-parametric coordinates.

mtllib light.mtl
g default
v -14.876651 13.375864 0.930712
v -14.876651 13.506390 -0.934683
v -14.876651 13.506390 0.930712
v -14.876651 13.375864 -0.934684
v -14.876651 13.506390 0.562436
v -14.876651 13.506390 -0.285928
v -14.876652 13.221474 -0.558311
v -14.876651 13.224605 0.569903
v -14.876651 13.375864 -0.574504
v -14.876650 13.375864 0.554340
v -14.876651 13.393789 -0.934684
v -14.876651 13.393789 -0.269735
v -14.876651 13.393789 0.562436
v -14.876651 13.393789 0.930712
v -14.876651 13.221474 0.010969
v -14.876651 13.375864 -0.005224
v -14.876651 13.506390 -0.269735
v -14.876651 13.393789 -0.285928
v -14.876651 13.224605 -0.573875
v -14.876651 13.221474 0.554340
v -14.876652 13.375864 -0.558311
v -14.876651 13.375864 0.570532
v -14.876651 13.221474 -0.005224
v -14.876651 13.375864 0.010969
v -15.067636 13.231474 -0.548311
v -15.067636 13.231474 -0.015224
v -15.067636 13.365864 -0.015224
v -15.067636 13.365864 -0.548311
v -15.067635 13.496389 -0.924683
v -15.067635 13.403790 -0.924684
v -15.067635 13.403790 -0.295928
v -15.067635 13.496389 -0.295928
v -15.067636 13.239666 0.579966
v -15.067635 13.365864 0.880993
v -15.067635 13.365864 0.580491
v -15.067635 13.365864 -0.884965
v -15.067635 13.239666 -0.583937
v -15.067635 13.365864 -0.584463
v -15.067635 13.496389 0.920712
v -15.067635 13.496389 0.562436
v -15.067636 13.496389 -0.259735
v -15.067636 13.403790 -0.259735
v -15.067635 13.403790 0.562436
v -15.067635 13.403790 0.920712
v -15.067635 13.365864 0.544340
v -15.067635 13.365864 0.020969
v -15.067635 13.231474 0.020969
v -15.067635 13.231474 0.544340
vt 0.851505 0.015393
vt 0.886159 0.015393
vt 0.886159 0.024129
vt 0.851505 0.024129
vt 0.880040 0.062855
vt 0.841848 0.062855
vt 0.841848 0.057230
vt 0.880040 0.057230
vt 0.970798 0.016658
vt 0.990268 0.024818
vt 0.970833 0.024819
vt 0.825721 0.023973
vt 0.805753 0.023971
vt 0.825757 0.015587
vt 0.950310 0.057636
vt 0.970713 0.057689
vt 0.970699 0.062962
vt 0.950296 0.062909
vt 0.903476 0.062787
vt 0.903490 0.057514
vt 0.911501 0.015757
vt 0.944801 0.015757
vt 0.944801 0.024308
vt 0.911501 0.024308
vt 0.850855 0.002961
vt 0.886809 0.002961
vt 0.898591 0.024779
vt 0.850855 0.036561
vt 0.830232 0.063462
vt 0.830232 0.056623
vt 0.880647 0.045613
vt 0.891656 0.063462
vt 0.974678 0.004872
vt 0.998015 0.014653
vt 0.970190 0.037189
vt 0.797794 0.013528
vt 0.821770 0.003479
vt 0.838426 0.024689
vt 0.971240 0.073855
vt 0.950268 0.073800
vt 0.902878 0.073676
vt 0.892600 0.056916
vt 0.950338 0.046745
vt 0.971311 0.046799
vt 0.945437 0.036476
vt 0.910865 0.036476
vt 0.899332 0.015121
vt 0.945437 0.003589
vt 0.981588 0.063560
vt 0.892583 0.063328
vt 0.902949 0.046621
vt 0.981605 0.057148
vt 0.841241 0.074471
vt 0.841241 0.045613
vt 0.891656 0.056623
vt 0.880647 0.074471
vt 0.958425 0.015733
vt 0.993485 0.037186
vt 0.958466 0.025516
vt 0.956969 0.024944
vt 0.899332 0.024944
vt 0.910865 0.003589
vt 0.956969 0.015121
vt 0.839073 0.014743
vt 0.898591 0.014743
vt 0.886809 0.036561
vt 0.839073 0.024779
vt 0.802448 0.036679
vt 0.838469 0.014638
vt 0.826382 0.036681
vn -1.000000 -0.000000 0.000000
vn -1.000000 -0.000000 0.000000
vn -1.000000 -0.000000 0.000000
vn -1.000000 -0.000000 0.000000
vn -1.000000 -0.000000 0.000000
vn -1.000000 -0.000000 0.000000
vn -1.000000 0.000000 0.000000
vn -1.000000 0.000000 0.000000
vn -1.000000 0.000000 0.000000
vn -1.000000 0.000000 0.000000
vn -1.000000 0.000000 0.000000
vn -1.000000 0.000000 0.000000
vn -1.000000 -0.000000 0.000000
vn -1.000000 -0.000000 0.000000
vn -1.000000 -0.000000 0.000000
vn -1.000000 -0.000000 0.000000
vn -1.000000 -0.000000 0.000000
vn -1.000000 -0.000000 0.000000
vn -1.000000 -0.000000 0.000000
vn -1.000000 -0.000000 0.000000
vn -1.000000 -0.000000 0.000000
vn -1.000000 -0.000000 0.000000
vn -1.000000 -0.000000 0.000000
vn -1.000000 -0.000000 0.000000
vn -1.000000 -0.000000 0.000000
vn -1.000000 -0.000000 0.000000
vn -1.000000 -0.000000 0.000000
vn -1.000000 -0.000000 0.000000
vn -1.000000 -0.000000 0.000000
vn -1.000000 -0.000000 0.000000
vn -1.000000 -0.000000 0.000000
vn -1.000000 -0.000000 0.000000
vn -1.000000 -0.000000 0.000000
vn -1.000000 -0.000000 0.000000
vn -1.000000 -0.000000 0.000000
vn -1.000000 -0.000000 0.000000
vn -0.052289 -0.998632 0.000000
vn -0.052289 -0.998632 0.000000
vn -0.052289 -0.998632 0.000000
vn -0.052289 -0.998632 0.000000
vn -0.052289 -0.998632 0.000000
vn -0.052289 -0.998632 0.000000
vn -0.052289 0.000000 0.998632
vn -0.052289 0.000000 0.998632
vn -0.052289 0.000000 0.998632
vn -0.052289 0.000000 0.998632
vn -0.052289 0.000000 0.998632
vn -0.052289 0.000000 0.998632
vn -0.052289 0.998632 0.000000
vn -0.052289 0.998632 0.000000
vn -0.052289 0.998632 0.000000
vn -0.052289 0.998632 0.000000
vn -0.052289 0.998632 0.000000
vn -0.052289 0.998632 0.000000
vn -0.052289 -0.000000 -0.998632
vn -0.052289 -0.000000 -0.998632
vn -0.052289 -0.000000 -0.998632
vn -0.052289 -0.000000 -0.998632
vn -0.052289 -0.000000 -0.998632
vn -0.052289 -0.000000 -0.998632
vn -0.052289 0.000001 -0.998632
vn -0.052289 0.000001 -0.998632
vn -0.052289 0.000001 -0.998632
vn -0.052289 0.000001 -0.998632
vn -0.052289 0.000001 -0.998632
vn -0.052289 0.000001 -0.998632
vn -0.052289 -0.998632 -0.000000
vn -0.052289 -0.998632 -0.000000
vn -0.052289 -0.998632 -0.000000
vn -0.052289 -0.998632 -0.000000
vn -0.052289 -0.998632 -0.000000
vn -0.052289 -0.998632 -0.000000
vn -0.052288 0.000001 0.998632
vn -0.052288 0.000001 0.998632
vn -0.052288 0.000001 0.998632
vn -0.052288 0.000000 0.998632
vn -0.052288 0.000000 0.998632
vn -0.052288 0.000000 0.998632
vn -0.052289 0.998632 0.000000
vn -0.052289 0.998632 0.000000
vn -0.052289 0.998632 0.000000
vn -0.052289 0.998632 0.000000
vn -0.052289 0.998632 0.000000
vn -0.052289 0.998632 0.000000
vn -0.052289 -0.920976 0.386094
vn -0.052289 -0.920976 0.386094
vn -0.052289 -0.920976 0.386094
vn -0.052289 -0.920976 0.386094
vn -0.052289 -0.920976 0.386094
vn -0.052289 -0.920976 0.386094
vn -0.052289 0.998632 0.000000
vn -0.052289 0.998632 0.000000
vn -0.052289 0.998632 0.000000
vn -0.052289 0.998632 -0.000000
vn -0.052289 0.998632 -0.000000
vn -0.052289 0.998632 -0.000000
vn -0.052289 0.004156 -0.998623
vn -0.052289 0.004156 -0.998623
vn -0.052289 0.004156 -0.998623
vn -0.052289 0.004156 -0.998623
vn -0.052289 0.004156 -0.998623
vn -0.052289 0.004156 -0.998623
vn -0.052289 -0.920976 -0.386094
vn -0.052289 -0.920976 -0.386094
vn -0.052289 -0.920976 -0.386094
vn -0.052289 -0.920976 -0.386094
vn -0.052289 -0.920976 -0.386094
vn -0.052289 -0.920976 -0.386094
vn -0.052289 0.004157 0.998623
vn -0.052289 0.004157 0.998623
vn -0.052289 0.004157 0.998623
vn -0.052288 0.004157 0.998623
vn -0.052288 0.004157 0.998623
vn -0.052288 0.004157 0.998623
vn -0.052289 0.998632 0.000000
vn -0.052289 0.998632 0.000000
vn -0.052289 0.998632 0.000000
vn -0.052289 0.998632 0.000000
vn -0.052289 0.998632 0.000000
vn -0.052289 0.998632 0.000000
vn -0.052289 0.998632 0.000000
vn -0.052289 0.998632 0.000000
vn -0.052289 0.998632 0.000000
vn -0.052289 0.998632 0.000000
vn -0.052289 0.998632 0.000000
vn -0.052289 0.998632 0.000000
vn -0.052289 0.998632 -0.000000
vn -0.052289 0.998632 -0.000000
vn -0.052289 0.998632 -0.000000
vn -0.052289 0.998632 0.000000
vn -0.052289 0.998632 0.000000
vn -0.052289 0.998632 0.000000
vn -0.052289 -0.000001 -0.998632
vn -0.052289 -0.000001 -0.998632
vn -0.052289 -0.000001 -0.998632
vn -0.052289 -0.000000 -0.998632
vn -0.052289 -0.000000 -0.998632
vn -0.052289 -0.000000 -0.998632
vn -0.052289 -0.998632 0.000000
vn -0.052289 -0.998632 0.000000
vn -0.052289 -0.998632 0.000000
vn -0.052289 -0.998632 0.000000
vn -0.052289 -0.998632 0.000000
vn -0.052289 -0.998632 0.000000
vn -0.052289 -0.998632 0.000000
vn -0.052289 -0.998632 0.000000
vn -0.052289 -0.998632 0.000000
vn -0.052289 -0.998632 0.000000
vn -0.052289 -0.998632 0.000000
vn -0.052289 -0.998632 0.000000
vn -0.052288 0.000001 0.998632
vn -0.052288 0.000001 0.998632
vn -0.052288 0.000001 0.998632
vn -0.052289 -0.000000 0.998632
vn -0.052289 -0.000000 0.998632
vn -0.052289 -0.000000 0.998632
vn -0.052289 0.998632 0.000000
vn -0.052289 0.998632 0.000000
vn -0.052289 0.998632 0.000000
vn -0.052289 0.998632 0.000000
vn -0.052289 0.998632 0.000000
vn -0.052289 0.998632 0.000000
vn -0.052289 -0.000000 -0.998632
vn -0.052289 -0.000000 -0.998632
vn -0.052289 -0.000000 -0.998632
vn -0.052289 -0.000000 -0.998632
vn -0.052289 -0.000000 -0.998632
vn -0.052289 -0.000000 -0.998632
vn -0.052289 -0.998632 0.000000
vn -0.052289 -0.998632 0.000000
vn -0.052289 -0.998632 0.000000
vn -0.052289 -0.998632 0.000000
vn -0.052289 -0.998632 0.000000
vn -0.052289 -0.998632 0.000000
vn -0.052288 0.000000 0.998632
vn -0.052288 0.000000 0.998632
vn -0.052288 0.000000 0.998632
vn -0.052289 -0.000000 0.998632
vn -0.052289 -0.000000 0.998632
vn -0.052289 -0.000000 0.998632
s off
g f_light1
usemtl f_sliderSG
f 26/2/1 27/3/2 28/4/3
f 28/4/4 25/1/5 26/2/6
f 29/6/7 30/7/8 31/8/9
f 31/8/10 32/5/11 29/6/12
f 33/9/13 34/10/14 35/11/15
f 38/12/16 36/13/17 37/14/18
f 43/15/19 44/16/20 39/17/21
f 43/15/22 39/17/23 40/18/24
f 40/18/25 41/19/26 42/20/27
f 43/15/28 40/18/29 42/20/30
f 48/22/31 45/23/32 46/24/33
f 46/24/34 47/21/35 48/22/36
f 7/25/37 23/26/38 26/2/39
f 26/2/40 25/1/41 7/25/42
f 23/65/43 16/27/44 27/3/45
f 27/3/46 26/2/47 23/65/48
f 16/66/49 21/28/50 28/4/51
f 28/4/52 27/3/53 16/66/54
f 21/67/55 7/64/56 25/1/57
f 25/1/58 28/4/59 21/67/60
f 2/29/61 11/30/62 30/7/63
f 30/7/64 29/6/65 2/29/66
f 11/54/67 18/31/68 31/8/69
f 31/8/70 30/7/71 11/54/72
f 18/55/73 6/32/74 32/5/75
f 32/5/76 31/8/77 18/55/78
f 6/56/79 2/53/80 29/6/81
f 29/6/82 32/5/83 6/56/84
f 8/33/85 1/34/86 34/10/87
f 34/10/88 33/9/89 8/33/90
f 1/58/91 22/35/92 35/11/93
f 35/11/94 34/10/95 1/58/96
f 22/59/97 8/57/98 33/9/99
f 33/9/100 35/11/101 22/59/102
f 4/36/103 19/37/104 37/14/105
f 37/14/106 36/13/107 4/36/108
f 19/69/109 9/38/110 38/12/111
f 38/12/112 37/14/113 19/69/114
f 9/70/115 4/68/116 36/13/117
f 36/13/118 38/12/119 9/70/120
f 3/39/121 5/40/122 40/18/123
f 40/18/124 39/17/125 3/39/126
f 5/40/127 17/41/128 41/19/129
f 41/19/130 40/18/131 5/40/132
f 17/50/133 12/42/134 42/20/135
f 42/20/136 41/19/137 17/50/138
f 12/51/139 13/43/140 43/15/141
f 43/15/142 42/20/143 12/51/144
f 13/43/145 14/44/146 44/16/147
f 44/16/148 43/15/149 13/43/150
f 14/52/151 3/49/152 39/17/153
f 39/17/154 44/16/155 14/52/156
f 10/45/157 24/46/158 46/24/159
f 46/24/160 45/23/161 10/45/162
f 24/61/163 15/47/164 47/21/165
f 47/21/166 46/24/167 24/61/168
f 15/62/169 20/48/170 48/22/171
f 48/22/172 47/21/173 15/62/174
f 20/63/175 10/60/176 45/23/177
f 45/23/178 48/22/179 20/63/180
