# This file uses centimeters as units for non-parametric coordinates.

mtllib rail4.mtl
g default
v -17.666780 20.808311 -2.874526
v 4.639892 20.784464 -2.874521
v 4.640108 20.784557 -0.199995
v -17.666780 20.808311 -0.200000
v -17.666780 17.361244 -2.874525
v 6.139467 17.367958 -2.874527
v -17.666780 17.361244 -2.511375
v -17.666780 17.173586 -2.511375
v 6.220012 17.184530 -2.511378
v 6.139495 17.367971 -2.511377
v 4.797370 20.426262 -0.199996
v -17.666780 20.445162 -0.200000
v 4.797388 20.426268 -0.012337
v -17.666780 20.445162 -0.012341
v -17.666780 18.796646 -0.325302
v -17.666780 19.587772 -0.482668
v -17.666780 18.827477 -0.012312
v -17.666780 18.701759 -0.638103
v -17.666780 19.446983 -0.946786
v -17.666780 19.446983 -0.946785
v -17.666780 18.547670 -0.926382
v -17.666780 19.218353 -1.374519
v -17.666780 18.340302 -1.179060
v -17.666780 18.910671 -1.749430
v -17.666780 18.087624 -1.386427
v -17.666780 18.535759 -2.057111
v -17.666780 17.799345 -1.540515
v -17.666780 18.108027 -2.285739
v -17.666780 17.486544 -1.635401
v -17.666780 17.643908 -2.426527
v -17.666780 17.173557 -1.666231
v 5.457784 18.827477 -0.012341
v 6.136402 17.173586 -1.666231
v 6.139698 17.368059 -0.012342
v 6.220214 17.184618 -0.012343
v 6.139698 17.368059 -0.012342
v -15.048372 18.827477 -0.012312
v -15.048372 18.796646 -0.325302
v -15.048372 18.701759 -0.638103
v -15.048372 18.547670 -0.926382
v -15.048372 18.340302 -1.179060
v -15.048372 18.087624 -1.386427
v -15.048372 17.799345 -1.540515
v -15.048372 17.486544 -1.635401
v -15.048372 17.173557 -1.666231
vt 0.004698 0.883952
vt 0.004789 0.968720
vt 0.711798 0.967964
vt 0.711700 0.883196
vt 0.004698 0.774698
vt 0.759229 0.774911
vt 0.004698 0.774698
vt 0.759230 0.774912
vt 0.761782 0.769097
vt 0.004698 0.768751
vt 0.010082 0.563800
vt 0.010082 0.551266
vt 0.785403 0.550614
vt 0.779975 0.562980
vt 0.784954 0.540077
vt 0.784955 0.527831
vt 0.004011 0.527831
vt 0.004011 0.540077
vt 0.712756 0.981882
vt 0.004409 0.983192
vt 0.004395 0.978469
vt 0.712742 0.977159
vt 0.368414 0.240949
vt 0.382232 0.242310
vt 0.361467 0.275876
vt 0.340977 0.269660
vt 0.340977 0.269660
vt 0.354605 0.236760
vt 0.322094 0.259567
vt 0.341878 0.229958
vt 0.305542 0.245983
vt 0.330723 0.220803
vt 0.291959 0.229432
vt 0.321568 0.209648
vt 0.281865 0.210548
vt 0.314765 0.196921
vt 0.275650 0.190059
vt 0.310576 0.183111
vt 0.271904 0.169295
vt 0.309215 0.169294
vt 0.271904 0.177580
vt 0.382231 0.313728
vt 0.373946 0.313728
vt 0.255872 0.329760
vt 0.255872 0.177580
vt 0.373946 0.329760
vt 0.007596 0.950516
vt 0.007596 0.967462
vt 0.242927 0.967264
vt 0.241692 0.951023
vt 0.239484 0.965231
vt 0.238742 0.952503
vt 0.006486 0.949269
vt 0.006412 0.961985
vt 0.509675 0.329689
vt 0.391653 0.329689
vt 0.391653 0.313849
vt 0.509676 0.178649
vt 0.383372 0.178649
vt 0.383372 0.313849
vt 0.487206 0.177360
vt 0.383393 0.177360
vt 0.383393 0.169725
vt 0.487206 0.169725
vt 0.868054 0.568508
vt 0.816482 0.568508
vt 0.816482 0.572673
vt 0.868054 0.572673
vt 0.868054 0.697150
vt 0.816482 0.697150
vt 0.816482 0.701478
vt 0.868054 0.701478
vt 0.868054 0.692839
vt 0.816482 0.692839
vt 0.868054 0.688557
vt 0.816482 0.688557
vt 0.868054 0.684313
vt 0.816482 0.684313
vt 0.868054 0.680107
vt 0.816482 0.680107
vt 0.868054 0.675934
vt 0.816482 0.675934
vt 0.868054 0.671940
vt 0.816482 0.671940
vn 0.001067 0.999999 -0.000018
vn 0.001067 0.999999 -0.000018
vn 0.001067 0.999999 -0.000018
vn 0.001067 0.999999 -0.000018
vn 0.000000 0.000001 -1.000000
vn 0.000000 0.000001 -1.000000
vn 0.000000 0.000001 -1.000000
vn 0.000000 0.000001 -1.000000
vn -0.000000 0.000003 -1.000000
vn -0.000000 0.000003 -1.000000
vn -0.000000 0.000003 -1.000000
vn -0.000000 0.000003 -1.000000
vn -0.000000 -0.000002 1.000000
vn -0.000000 -0.000002 1.000000
vn -0.000000 -0.000002 1.000000
vn -0.000000 -0.000002 1.000000
vn 0.000282 -1.000000 0.000018
vn 0.000282 -1.000000 0.000018
vn 0.000282 -1.000000 0.000018
vn 0.000282 -1.000000 0.000018
vn 0.000841 1.000000 -0.000015
vn 0.000841 1.000000 -0.000015
vn 0.000841 1.000000 -0.000015
vn 0.000841 1.000000 -0.000015
vn -1.000000 0.000000 0.000000
vn -1.000000 0.000000 0.000000
vn -1.000000 0.000000 0.000000
vn -1.000000 0.000000 0.000000
vn -1.000000 0.000000 0.000000
vn -1.000000 0.000000 0.000000
vn -1.000000 0.000000 0.000000
vn -1.000000 0.000000 0.000000
vn -1.000000 0.000000 0.000000
vn -1.000000 0.000000 0.000000
vn -1.000000 0.000000 0.000000
vn -1.000000 0.000000 0.000000
vn -1.000000 0.000000 0.000000
vn -1.000000 0.000000 0.000000
vn -1.000000 0.000000 0.000000
vn -1.000000 0.000000 0.000000
vn -1.000000 0.000000 0.000000
vn -1.000000 0.000000 0.000000
vn -1.000000 0.000000 0.000000
vn -1.000000 0.000000 0.000000
vn -1.000000 0.000000 0.000000
vn -1.000000 0.000000 0.000000
vn -1.000000 0.000000 0.000000
vn -1.000000 0.000000 0.000000
vn -1.000000 0.000000 0.000000
vn -1.000000 0.000000 0.000000
vn -1.000000 0.000000 0.000000
vn -1.000000 0.000000 0.000000
vn -1.000000 0.000000 0.000000
vn -1.000000 0.000000 0.000000
vn -1.000000 0.000000 0.000000
vn -1.000000 0.000000 0.000000
vn -1.000000 0.000000 0.000000
vn -1.000000 0.000000 0.000000
vn -1.000000 0.000000 0.000000
vn -1.000000 0.000000 0.000000
vn -1.000000 0.000000 0.000000
vn -1.000000 0.000000 0.000000
vn -1.000000 0.000000 0.000000
vn -1.000000 0.000000 0.000000
vn -1.000000 0.000000 0.000000
vn -1.000000 0.000000 0.000000
vn -1.000000 0.000000 0.000000
vn -1.000000 0.000000 0.000000
vn -1.000000 0.000000 0.000000
vn -1.000000 0.000000 0.000000
vn -1.000000 0.000000 0.000000
vn -1.000000 0.000000 0.000000
vn -1.000000 0.000000 0.000000
vn -1.000000 0.000000 0.000000
vn -1.000000 0.000000 0.000000
vn -1.000000 0.000000 0.000000
vn -1.000000 0.000000 0.000000
vn -1.000000 0.000000 0.000000
vn -1.000000 0.000000 0.000000
vn -1.000000 0.000000 0.000000
vn -1.000000 0.000000 0.000000
vn -1.000000 0.000000 0.000000
vn -1.000000 0.000000 0.000000
vn -1.000000 0.000000 0.000000
vn 0.000001 0.000008 1.000000
vn 0.000001 0.000008 1.000000
vn 0.000001 0.000008 1.000000
vn 0.000001 0.000008 1.000000
vn -1.000000 0.000000 0.000000
vn -1.000000 0.000000 0.000000
vn -1.000000 0.000000 0.000000
vn -1.000000 0.000000 0.000000
vn -1.000000 0.000000 0.000000
vn -1.000000 0.000000 0.000000
vn 0.000230 -0.999979 -0.006480
vn 0.000230 -0.999979 -0.006480
vn 0.000230 -0.999979 -0.006480
vn 0.000230 -0.999979 -0.006480
vn 0.915679 0.401910 -0.000088
vn 0.915679 0.401910 -0.000088
vn 0.915679 0.401910 -0.000088
vn 0.915679 0.401910 -0.000088
vn 0.915679 0.401911 -0.000088
vn 0.915679 0.401911 -0.000088
vn 0.915679 0.401911 -0.000088
vn 0.915679 0.401910 -0.000091
vn 0.915679 0.401910 -0.000091
vn 0.915679 0.401910 -0.000091
vn 0.915678 0.401913 -0.000088
vn 0.915678 0.401913 -0.000088
vn 0.915678 0.401913 -0.000088
vn 0.915678 0.401913 -0.000088
vn -0.000000 -0.980784 0.195096
vn -0.000000 -0.980784 0.195096
vn -0.000000 -0.995184 0.098028
vn -0.000000 -0.995184 0.098028
vn -0.000000 -0.923879 0.382684
vn -0.000000 -0.923879 0.382684
vn -0.000000 -0.980784 0.195096
vn -0.000000 -0.980784 0.195096
vn -0.000000 -0.831468 0.555572
vn -0.000000 -0.831468 0.555572
vn -0.000000 -0.923879 0.382684
vn -0.000000 -0.923879 0.382684
vn 0.000000 -0.707106 0.707108
vn 0.000000 -0.707106 0.707108
vn -0.000000 -0.831468 0.555572
vn -0.000000 -0.831468 0.555572
vn 0.000000 -0.555570 0.831470
vn 0.000000 -0.555570 0.831470
vn 0.000000 -0.707106 0.707108
vn 0.000000 -0.707106 0.707108
vn 0.000000 -0.382682 0.923880
vn 0.000000 -0.382682 0.923880
vn 0.000000 -0.555570 0.831470
vn 0.000000 -0.555570 0.831470
vn 0.000000 -0.195094 0.980785
vn 0.000000 -0.195094 0.980785
vn 0.000000 -0.382682 0.923880
vn 0.000000 -0.382682 0.923880
vn 0.000000 -0.098026 0.995184
vn 0.000000 -0.098026 0.995184
vn 0.000000 -0.195094 0.980785
vn 0.000000 -0.195094 0.980785
s off
g polySurface3 f_slider
usemtl f_sliderSG
f 1/1/1 4/2/2 3/3/3 2/4/4
f 5/5/5 1/1/6 2/4/7 6/6/8
f 7/7/9 10/8/10 9/9/11 8/10/12
f 4/11/13 12/12/14 11/13/15 3/14/16
f 6/15/17 10/16/18 7/17/19 5/18/20
f 11/19/21 12/20/22 14/21/23 13/22/24
f 15/23/25 17/24/26 16/25/27
f 15/23/28 16/25/29 20/26/30 19/27/31 18/28/32
f 18/28/33 19/27/34 22/29/35 21/30/36
f 21/30/37 22/29/38 24/31/39 23/32/40
f 23/32/41 24/31/42 26/33/43 25/34/44
f 25/34/45 26/33/46 28/35/47 27/36/48
f 27/36/49 28/35/50 30/37/51 29/38/52
f 8/39/53 31/40/54 29/38/55 30/37/56 7/41/57
f 17/24/58 14/42/59 12/43/60 16/25/61
f 19/27/62 20/26/63 1/44/64 22/29/65
f 30/37/66 1/44/67 5/45/68 7/41/69
f 28/35/70 1/44/71 30/37/72
f 26/33/73 1/44/74 28/35/75
f 24/31/76 1/44/77 26/33/78
f 24/31/79 22/29/80 1/44/81
f 12/43/82 4/46/83 16/25/84
f 14/47/85 17/48/86 32/49/87 13/50/88
f 1/44/89 20/26/90 16/25/91
f 1/44/92 16/25/93 4/46/94
f 9/51/95 33/52/96 31/53/97 8/54/98
f 2/55/99 3/56/100 11/57/101 6/58/102
f 6/58/103 11/57/104 34/59/105
f 11/57/106 13/60/107 34/59/108
f 10/61/109 36/62/110 35/63/111 9/64/112
f 15/65/113 38/66/114 37/67/115 17/68/116
f 18/69/117 39/70/118 38/71/119 15/72/120
f 21/73/121 40/74/122 39/70/123 18/69/124
f 23/75/125 41/76/126 40/74/127 21/73/128
f 25/77/129 42/78/130 41/76/131 23/75/132
f 27/79/133 43/80/134 42/78/135 25/77/136
f 29/81/137 44/82/138 43/80/139 27/79/140
f 31/83/141 45/84/142 44/82/143 29/81/144
