# This file uses centimeters as units for non-parametric coordinates.

mtllib trigger.mtl
g default
v -0.219139 12.152081 0.562745
v 0.087363 12.152081 0.562745
v -0.381626 12.516800 0.562745
v -0.075124 12.516800 0.562745
v -0.542347 12.864035 0.562745
v -0.289160 12.864035 0.562745
v -0.729654 13.139828 0.562745
v -0.529430 13.139828 0.562745
v 0.087363 12.152081 0.295899
v -0.075124 12.516800 0.295899
v -0.289160 12.864035 0.295899
v -0.529430 13.139828 0.295899
v 3.009462 12.152081 0.562745
v 3.009462 12.516800 0.562745
v 3.009462 12.152081 0.295899
v 3.009462 12.516800 0.295899
v 3.009462 13.139828 0.295899
v -0.133525 10.854944 0.562745
v -0.093652 11.556227 0.562745
v 0.212850 11.556227 0.562745
v 0.172977 10.854944 0.562745
v 0.037110 10.490225 0.562744
v -0.250678 10.423407 0.562744
v -0.314554 9.729927 0.562744
v -0.567741 9.729927 0.562744
v -0.554823 9.485297 0.452264
v -0.755047 9.485297 0.452264
v 0.212850 11.556227 0.295899
v 0.172977 10.854944 0.295899
v 0.037110 10.490225 0.295899
v -0.314554 9.729927 0.295899
v -0.554823 9.485297 0.295899
v 3.009462 10.854944 0.562745
v 3.009462 10.490225 0.562744
v 3.009462 10.854944 0.295899
v 3.009462 10.490225 0.295899
v 3.009462 9.485297 0.295899
v -0.724015 13.139828 0.000000
v -0.088013 11.556227 0.000000
v -0.523791 13.139828 0.000000
v 3.009462 9.485298 0.000000
v -0.375987 12.516800 0.000000
v -0.213500 12.152081 0.000000
v -0.219139 12.152081 -0.562744
v -0.093652 11.556227 -0.562744
v 0.212850 11.556227 -0.562744
v 0.087363 12.152081 -0.562744
v -0.381626 12.516800 -0.562744
v -0.075124 12.516800 -0.562744
v -0.289160 12.864035 -0.562744
v -0.542347 12.864035 -0.562744
v -0.529430 13.139828 -0.562744
v -0.729654 13.139828 -0.562744
v 0.212850 11.556227 -0.295898
v 0.087363 12.152081 -0.295898
v -0.075124 12.516800 -0.295898
v -0.289160 12.864035 -0.295898
v -0.529430 13.139828 -0.295898
v 3.009462 12.152081 -0.562744
v 3.009462 12.516800 -0.562744
v 3.009462 12.152081 -0.295898
v 3.009462 12.516800 -0.295898
v 3.009462 13.139828 -0.295898
v -0.536708 12.864035 0.000000
v -0.133525 10.854944 -0.562744
v 0.172977 10.854944 -0.562744
v -0.250678 10.423407 -0.562744
v -0.567741 9.729928 -0.562744
v -0.314554 9.729928 -0.562744
v 0.037110 10.490225 -0.562744
v -0.755047 9.485298 -0.452263
v -0.554823 9.485298 -0.452263
v 0.172977 10.854944 -0.295898
v -0.314554 9.729927 -0.295898
v 0.037110 10.490225 -0.295898
v -0.554823 9.485298 -0.295898
v 3.009462 10.854944 -0.562744
v 3.009462 10.490225 -0.562744
v 3.009462 10.854944 -0.295898
v 3.009462 10.490225 -0.295898
v 3.009462 9.485298 -0.295898
v -0.127886 10.854944 0.000000
v -0.245039 10.423407 0.000000
v -0.562102 9.729927 0.000000
v -0.749408 9.485298 0.000000
v 3.009462 13.139828 0.000000
v -0.549184 9.485298 0.000000
vt 0.470687 0.474542
vt 0.463221 0.402819
vt 0.525507 0.402819
vt 0.473382 0.462121
vt 0.542518 0.472498
vt 0.479964 0.462121
vt 0.455860 0.477076
vt 0.442932 0.477076
vt 0.525507 0.410593
vt 0.459757 0.410593
vt 0.542518 0.460482
vt 0.553114 0.476293
vt 0.463221 0.397131
vt 0.525507 0.397131
vt 0.459757 0.416281
vt 0.525507 0.416281
vt 0.477269 0.474542
vt 0.553114 0.432992
vt 0.442932 0.467902
vt 0.455855 0.467902
vt 0.467198 0.482145
vt 0.547858 0.460482
vt 0.547858 0.472498
vt 0.473780 0.482145
vt 0.455862 0.485867
vt 0.469184 0.489384
vt 0.463747 0.489384
vt 0.542518 0.487038
vt 0.422649 0.426430
vt 0.422649 0.487064
vt 0.464024 0.495133
vt 0.542518 0.479922
vt 0.459725 0.495133
vt 0.547858 0.479922
vt 0.442932 0.485867
vt 0.547858 0.487038
vt 0.414853 0.489969
vt 0.414853 0.426430
vt 0.542518 0.492747
vt 0.568376 0.433757
vt 0.428353 0.426430
vt 0.428353 0.487064
vt 0.409148 0.489969
vt 0.409148 0.426430
vt 0.556735 0.432992
vt 0.556735 0.476224
vt 0.568376 0.476430
vt 0.455884 0.493520
vt 0.442932 0.493533
vt 0.455845 0.453912
vt 0.442932 0.453912
vt 0.455845 0.427500
vt 0.477269 0.474398
vt 0.479964 0.461977
vt 0.540018 0.474398
vt 0.469184 0.489240
vt 0.473780 0.482001
vt 0.540018 0.482001
vt 0.464024 0.494989
vt 0.540018 0.494989
vt 0.472526 0.447502
vt 0.479108 0.447502
vt 0.470010 0.438506
vt 0.463202 0.424049
vt 0.468638 0.424049
vt 0.476190 0.439898
vt 0.459179 0.418890
vt 0.463479 0.418890
vt 0.479108 0.447358
vt 0.540018 0.447358
vt 0.468638 0.423905
vt 0.540018 0.439755
vt 0.476190 0.439755
vt 0.463479 0.418806
vt 0.540018 0.418806
vt 0.547858 0.492747
vt 0.542518 0.446492
vt 0.547858 0.446492
vt 0.542518 0.424390
vt 0.547858 0.424390
vt 0.547858 0.439309
vt 0.542518 0.439309
vt 0.544729 0.419693
vt 0.547858 0.419693
vt 0.455849 0.437774
vt 0.442932 0.437774
vt 0.442932 0.427500
vt 0.442932 0.409980
vt 0.455871 0.409985
vt 0.442932 0.402892
vt 0.453351 0.402899
vt 0.455843 0.498114
vt 0.449713 0.498064
vt 0.442932 0.498139
vt 0.564833 0.476363
vt 0.564833 0.433757
vt 0.442932 0.398283
vt 0.449718 0.398344
vt 0.453304 0.398307
vt 0.470687 0.474542
vt 0.473382 0.462121
vt 0.479964 0.462121
vt 0.477269 0.474542
vt 0.467198 0.482145
vt 0.473780 0.482145
vt 0.469184 0.489384
vt 0.463747 0.489384
vt 0.464024 0.495133
vt 0.459725 0.495133
vt 0.542518 0.472498
vt 0.542518 0.460482
vt 0.547858 0.460482
vt 0.547858 0.472498
vt 0.542518 0.487038
vt 0.542518 0.479922
vt 0.547858 0.479922
vt 0.547858 0.487038
vt 0.542518 0.492747
vt 0.547858 0.492747
vt 0.463221 0.402819
vt 0.525507 0.402819
vt 0.525507 0.410593
vt 0.459757 0.410593
vt 0.463221 0.397131
vt 0.525507 0.397131
vt 0.459757 0.416281
vt 0.525507 0.416281
vt 0.477269 0.474398
vt 0.479964 0.461977
vt 0.540018 0.474398
vt 0.464024 0.494989
vt 0.469184 0.489240
vt 0.540018 0.482001
vt 0.540018 0.494989
vt 0.455860 0.477076
vt 0.442932 0.477076
vt 0.442932 0.467902
vt 0.455855 0.467902
vt 0.455862 0.485867
vt 0.442932 0.485867
vt 0.455884 0.493520
vt 0.442932 0.493533
vt 0.455845 0.453912
vt 0.442932 0.453912
vt 0.472526 0.447502
vt 0.479108 0.447502
vt 0.470010 0.438506
vt 0.463202 0.424049
vt 0.468638 0.424049
vt 0.476190 0.439898
vt 0.459179 0.418890
vt 0.463479 0.418890
vt 0.542518 0.446492
vt 0.547858 0.446492
vt 0.542518 0.424390
vt 0.547858 0.424390
vt 0.547858 0.439309
vt 0.542518 0.439309
vt 0.544729 0.419693
vt 0.547858 0.419693
vt 0.422649 0.426430
vt 0.422649 0.487064
vt 0.414853 0.489969
vt 0.414853 0.426430
vt 0.428353 0.426430
vt 0.428353 0.487064
vt 0.409148 0.489969
vt 0.409148 0.426430
vt 0.540018 0.447358
vt 0.468638 0.423905
vt 0.540018 0.439755
vt 0.476190 0.439755
vt 0.463479 0.418806
vt 0.540018 0.418806
vt 0.455845 0.427500
vt 0.455849 0.437774
vt 0.442932 0.437774
vt 0.442932 0.427500
vt 0.442932 0.409980
vt 0.455871 0.409985
vt 0.442932 0.402892
vt 0.453351 0.402899
vt 0.455843 0.498114
vt 0.449713 0.498064
vt 0.442932 0.498139
vt 0.553114 0.476293
vt 0.553114 0.432992
vt 0.556735 0.432992
vt 0.556735 0.476224
vt 0.442932 0.398283
vt 0.449718 0.398344
vt 0.453304 0.398307
vt 0.568376 0.433757
vt 0.568376 0.476430
vt 0.564833 0.476363
vt 0.564833 0.433757
vt 0.473780 0.482001
vt 0.479108 0.447358
vn 0.000000 -0.000000 1.000000
vn 0.000000 -0.000000 1.000000
vn 0.000000 0.000000 1.000000
vn 0.000000 0.000000 1.000000
vn 0.000000 0.000000 1.000000
vn 0.000000 0.000000 1.000000
vn 0.000000 -0.000000 1.000000
vn 0.000000 -0.000000 1.000000
vn 0.000000 -0.000000 1.000000
vn 0.000000 -0.000000 1.000000
vn 0.000000 -0.000000 1.000000
vn 0.000000 -0.000000 1.000000
vn 0.997160 0.075314 0.000000
vn 0.997160 0.075314 0.000000
vn 0.978535 0.206080 0.000000
vn 0.978535 0.206080 0.000000
vn 0.805350 0.592800 0.000000
vn 0.851271 0.524726 0.000000
vn 0.851271 0.524726 0.000000
vn 0.805350 0.592800 0.000000
vn 0.753998 0.656877 0.000000
vn 0.805350 0.592800 0.000000
vn 0.805350 0.592800 0.000000
vn 0.753998 0.656877 0.000000
vn 0.000000 0.000000 1.000000
vn 0.000000 0.000000 1.000000
vn 0.000000 0.000000 1.000000
vn 0.000000 0.000000 1.000000
vn 0.000000 -1.000000 -0.000000
vn 0.000000 -1.000000 -0.000000
vn 0.000000 -1.000000 -0.000000
vn 0.000000 -1.000000 -0.000000
vn 0.000000 1.000000 0.000000
vn 0.000000 1.000000 0.000000
vn 0.000000 1.000000 0.000000
vn 0.000000 1.000000 0.000000
vn 0.000000 -0.000000 1.000000
vn 0.000000 -0.000000 1.000000
vn 0.000000 -0.000000 1.000000
vn 0.000000 -0.000000 1.000000
vn 0.000000 -0.000000 1.000000
vn 0.000000 -0.000000 1.000000
vn 0.000000 -0.000000 1.000000
vn -0.910507 -0.413494 -0.000000
vn -0.951373 -0.308041 -0.000000
vn -0.951202 -0.308422 -0.009532
vn -0.910453 -0.413512 -0.009123
vn -0.870110 -0.492781 -0.008719
vn -0.870395 -0.492354 -0.000000
vn -0.910507 -0.413494 -0.000000
vn -0.910453 -0.413512 -0.009123
vn -0.827224 -0.561812 -0.008289
vn -0.827252 -0.561831 -0.000000
vn -0.870395 -0.492354 -0.000000
vn -0.870110 -0.492781 -0.008719
vn -0.951202 -0.308422 -0.009532
vn -0.951373 -0.308041 -0.000000
vn -0.997165 -0.075250 -0.000000
vn -0.997105 -0.075373 -0.009992
vn -0.000000 -0.000000 1.000000
vn 0.000000 -0.000000 1.000000
vn 0.000000 -0.000000 1.000000
vn -0.000000 -0.000000 1.000000
vn -0.000000 -0.000000 1.000000
vn -0.000000 -0.275674 0.961251
vn -0.000000 -0.123945 0.992289
vn -0.000000 -0.000000 1.000000
vn -0.000000 -0.275674 0.961251
vn 0.000000 -0.411594 0.911367
vn 0.000000 -0.411594 0.911367
vn -0.000000 -0.123945 0.992289
vn 0.998388 -0.056766 -0.000000
vn 0.997160 0.075314 0.000000
vn 0.997160 0.075314 0.000000
vn 0.998388 -0.056766 -0.000000
vn 0.833308 -0.552810 -0.000000
vn 0.822606 -0.568612 -0.000000
vn 0.907615 -0.419803 -0.000000
vn 0.907615 -0.419803 -0.000000
vn 0.713436 -0.700720 -0.000000
vn 0.713436 -0.700720 -0.000000
vn 0.822606 -0.568612 -0.000000
vn 0.833308 -0.552810 -0.000000
vn 0.000000 -0.000000 1.000000
vn -0.000000 -0.000000 1.000000
vn -0.000000 -0.000000 1.000000
vn 0.000000 -0.000000 1.000000
vn 0.000000 1.000000 0.000000
vn 0.000000 1.000000 0.000000
vn 0.000000 1.000000 0.000000
vn 0.000000 1.000000 0.000000
vn 0.000000 -1.000000 -0.000000
vn 0.000000 -1.000000 -0.000000
vn 0.000000 -1.000000 -0.000000
vn 0.000000 -1.000000 -0.000000
vn 0.000000 -0.000000 1.000000
vn 0.000000 -0.000000 1.000000
vn 0.000000 -0.000000 1.000000
vn 0.000000 -0.000000 1.000000
vn 0.000000 -0.000000 1.000000
vn 0.000000 -0.000000 1.000000
vn 0.000000 -0.000000 1.000000
vn 0.000000 -0.000000 1.000000
vn 0.000000 -0.000000 1.000000
vn 0.000000 -0.000000 1.000000
vn -0.987011 0.160345 -0.009890
vn -0.987094 0.160143 0.000000
vn -0.940471 0.339873 0.000000
vn -0.940309 0.340192 -0.009422
vn -0.940471 0.339873 0.000000
vn -0.856904 0.515476 0.000000
vn -0.863590 0.504115 -0.009037
vn -0.940309 0.340192 -0.009422
vn -0.856904 0.515476 0.000000
vn -0.793026 0.609188 0.000000
vn -0.792995 0.609164 -0.008811
vn -0.863590 0.504115 -0.009037
vn -0.997165 -0.075250 -0.000000
vn -0.987094 0.160143 0.000000
vn -0.987011 0.160345 -0.009890
vn -0.997105 -0.075373 -0.009992
vn 0.000000 1.000000 0.000000
vn 0.000000 1.000000 0.000000
vn 0.000000 1.000000 0.000000
vn 0.000000 1.000000 0.000000
vn 0.000000 1.000000 0.000000
vn 0.000000 1.000000 0.000000
vn 0.000000 1.000000 0.000000
vn 0.000000 1.000000 0.000000
vn 0.000000 1.000000 0.000000
vn 0.000000 0.000000 1.000000
vn 0.000000 0.000000 1.000000
vn 0.000000 0.000000 1.000000
vn 0.000000 0.000000 1.000000
vn -0.000000 -0.000000 1.000000
vn -0.000000 -0.000000 1.000000
vn -0.000000 -0.000000 1.000000
vn -0.000000 -0.000000 1.000000
vn 0.000000 -1.000000 -0.000000
vn 0.000000 -1.000000 -0.000000
vn 0.000000 -1.000000 -0.000000
vn 0.000000 -1.000000 -0.000000
vn 0.000000 -1.000000 -0.000000
vn 0.000000 -1.000000 -0.000000
vn 0.000000 -1.000000 -0.000000
vn 0.000000 -1.000000 -0.000000
vn 0.000000 -1.000000 -0.000000
vn 0.000000 -0.000000 1.000000
vn 0.000000 -0.000000 1.000000
vn 0.000000 -0.000000 1.000000
vn 0.000000 -0.000000 1.000000
vn 0.000000 -0.000000 1.000000
vn 0.000000 -0.000000 1.000000
vn 0.000000 0.000000 -1.000000
vn 0.000000 -0.000000 -1.000000
vn 0.000000 -0.000000 -1.000000
vn 0.000000 0.000000 -1.000000
vn 0.000000 0.000000 -1.000000
vn 0.000000 0.000000 -1.000000
vn 0.000000 0.000000 -1.000000
vn 0.000000 0.000000 -1.000000
vn 0.000000 0.000000 -1.000000
vn 0.000000 0.000000 -1.000000
vn 0.000000 0.000000 -1.000000
vn 0.000000 0.000000 -1.000000
vn 0.978535 0.206080 0.000000
vn 0.997160 0.075314 0.000000
vn 0.997160 0.075314 0.000000
vn 0.978535 0.206080 0.000000
vn 0.805350 0.592800 0.000000
vn 0.805350 0.592800 0.000000
vn 0.851271 0.524726 0.000000
vn 0.851271 0.524726 0.000000
vn 0.753998 0.656877 0.000000
vn 0.753998 0.656877 0.000000
vn 0.805350 0.592800 0.000000
vn 0.805350 0.592800 0.000000
vn 0.000000 0.000000 -1.000000
vn 0.000000 0.000000 -1.000000
vn 0.000000 0.000000 -1.000000
vn 0.000000 0.000000 -1.000000
vn 0.000000 -1.000000 -0.000000
vn 0.000000 -1.000000 -0.000000
vn 0.000000 -1.000000 -0.000000
vn 0.000000 -1.000000 -0.000000
vn 0.000000 1.000000 0.000000
vn 0.000000 1.000000 0.000000
vn 0.000000 1.000000 0.000000
vn 0.000000 1.000000 0.000000
vn 0.000000 0.000000 -1.000000
vn 0.000000 0.000000 -1.000000
vn 0.000000 0.000000 -1.000000
vn 0.000000 0.000000 -1.000000
vn 0.000000 0.000000 -1.000000
vn 0.000000 0.000000 -1.000000
vn 0.000000 0.000000 -1.000000
vn -0.951202 -0.308422 0.009532
vn -0.951373 -0.308041 -0.000000
vn -0.910507 -0.413494 -0.000000
vn -0.910453 -0.413512 0.009123
vn -0.910507 -0.413494 -0.000000
vn -0.870395 -0.492354 -0.000000
vn -0.870110 -0.492781 0.008719
vn -0.910453 -0.413512 0.009123
vn -0.870395 -0.492354 -0.000000
vn -0.827252 -0.561831 -0.000000
vn -0.827224 -0.561812 0.008289
vn -0.870110 -0.492781 0.008719
vn -0.997165 -0.075250 -0.000000
vn -0.951373 -0.308041 -0.000000
vn -0.951202 -0.308422 0.009532
vn -0.997105 -0.075373 0.009992
vn 0.000000 -0.000000 -1.000000
vn 0.000000 -0.000000 -1.000000
vn -0.000000 -0.000000 -1.000000
vn -0.000000 -0.000000 -1.000000
vn -0.000000 -0.000000 -1.000000
vn -0.000000 -0.000000 -1.000000
vn -0.000000 -0.123945 -0.992289
vn -0.000000 -0.275674 -0.961251
vn -0.000000 -0.275674 -0.961251
vn -0.000000 -0.123945 -0.992289
vn 0.000000 -0.411594 -0.911367
vn 0.000000 -0.411594 -0.911367
vn 0.997160 0.075314 0.000000
vn 0.997160 0.075314 0.000000
vn 0.998388 -0.056766 -0.000000
vn 0.998388 -0.056766 -0.000000
vn 0.833308 -0.552810 -0.000000
vn 0.907615 -0.419803 -0.000000
vn 0.907615 -0.419803 -0.000000
vn 0.822606 -0.568612 -0.000000
vn 0.713436 -0.700720 -0.000000
vn 0.833308 -0.552810 -0.000000
vn 0.822606 -0.568612 -0.000000
vn 0.713436 -0.700720 -0.000000
vn 0.000000 -0.000000 -1.000000
vn 0.000000 -0.000000 -1.000000
vn -0.000000 -0.000000 -1.000000
vn -0.000000 -0.000000 -1.000000
vn 0.000000 1.000000 0.000000
vn 0.000000 1.000000 0.000000
vn 0.000000 1.000000 0.000000
vn 0.000000 1.000000 0.000000
vn 0.000000 -1.000000 -0.000000
vn 0.000000 -1.000000 -0.000000
vn 0.000000 -1.000000 -0.000000
vn 0.000000 -1.000000 -0.000000
vn 0.000000 0.000000 -1.000000
vn 0.000000 0.000000 -1.000000
vn 0.000000 0.000000 -1.000000
vn 0.000000 -0.000000 -1.000000
vn 0.000000 0.000000 -1.000000
vn 0.000000 -0.000000 -1.000000
vn 0.000000 -0.000000 -1.000000
vn 0.000000 -0.000000 -1.000000
vn 0.000000 -0.000000 -1.000000
vn 0.000000 -0.000000 -1.000000
vn -0.940471 0.339873 0.000000
vn -0.987094 0.160143 0.000000
vn -0.987011 0.160345 0.009890
vn -0.940309 0.340192 0.009422
vn -0.863590 0.504115 0.009037
vn -0.856904 0.515476 0.000000
vn -0.940471 0.339873 0.000000
vn -0.940309 0.340192 0.009422
vn -0.792995 0.609164 0.008811
vn -0.793026 0.609188 0.000000
vn -0.856904 0.515476 0.000000
vn -0.863590 0.504115 0.009037
vn -0.987011 0.160345 0.009890
vn -0.987094 0.160143 0.000000
vn -0.997165 -0.075250 -0.000000
vn -0.997105 -0.075373 0.009992
vn 0.000000 1.000000 0.000000
vn 0.000000 1.000000 0.000000
vn 0.000000 1.000000 0.000000
vn 0.000000 1.000000 0.000000
vn 0.000000 1.000000 0.000000
vn 0.000000 1.000000 0.000000
vn 0.000000 1.000000 0.000000
vn 0.000000 1.000000 0.000000
vn 0.000000 1.000000 0.000000
vn 0.000000 0.000000 -1.000000
vn 0.000000 0.000000 -1.000000
vn 0.000000 0.000000 -1.000000
vn 0.000000 0.000000 -1.000000
vn -0.000000 -0.000000 -1.000000
vn -0.000000 -0.000000 -1.000000
vn -0.000000 -0.000000 -1.000000
vn -0.000000 -0.000000 -1.000000
vn 0.000000 -1.000000 -0.000000
vn 0.000000 -1.000000 -0.000000
vn 0.000000 -1.000000 -0.000000
vn 0.000000 -1.000000 -0.000000
vn 0.000000 -1.000000 -0.000000
vn 0.000000 -1.000000 -0.000000
vn 0.000000 -1.000000 -0.000000
vn 0.000000 -1.000000 -0.000000
vn 0.000000 -1.000000 -0.000000
vn 0.000000 0.000000 -1.000000
vn 0.000000 0.000000 -1.000000
vn 0.000000 0.000000 -1.000000
vn 0.000000 0.000000 -1.000000
vn 0.000000 0.000000 -1.000000
vn 0.000000 0.000000 -1.000000
s off
g f_trigger
usemtl f_sliderSG
f 19/4/1 20/6/2 2/17/3 1/1/4
f 3/21/5 4/24/6 6/26/7 5/27/8
f 5/27/9 6/26/10 8/31/11 7/33/12
f 20/11/13 28/22/14 9/23/15 2/5/16
f 6/28/17 4/32/18 10/34/19 11/36/20
f 8/39/21 6/28/22 11/36/23 12/76/24
f 2/2/25 13/3/26 14/9/27 4/10/28
f 9/13/29 15/14/30 13/3/31 2/2/32
f 4/10/33 14/9/34 16/16/35 10/15/36
f 9/53/37 28/54/38 15/55/39
f 11/56/40 16/58/41 17/60/42 12/59/43
f 42/8/44 43/19/45 1/20/46 3/7/47
f 5/25/48 64/35/49 42/8/50 3/7/51
f 7/48/52 38/49/53 64/35/54 5/25/55
f 1/20/56 43/19/57 39/51/58 19/50/59
f 21/62/60 20/6/61 19/4/62 18/61/63
f 23/63/64 25/64/65 24/65/66 22/66/67
f 25/64/68 27/67/69 26/68/70 24/65/71
f 29/78/72 28/22/73 20/11/74 21/77/75
f 24/79/76 31/80/77 30/81/78 22/82/79
f 26/83/80 32/84/81 31/80/82 24/79/83
f 33/29/84 21/30/85 22/37/86 34/38/87
f 33/29/88 35/41/89 29/42/90 21/30/91
f 36/44/92 34/38/93 22/37/94 30/43/95
f 35/70/96 15/55/97 28/54/98
f 31/71/99 36/72/100 30/73/101
f 32/74/102 37/75/103 36/72/104 31/71/105
f 18/85/106 82/86/107 83/87/108 23/52/109
f 83/87/110 84/88/111 25/89/112 23/52/113
f 84/88/114 85/90/115 27/91/116 25/89/117
f 39/51/118 82/86/119 18/85/120 19/50/121
f 7/48/122 8/92/123 12/93/124 40/94/125 38/49/126
f 17/18/127 86/45/128 40/46/129 12/12/130
f 3/21/131 1/1/132 2/17/133 4/24/134
f 18/61/135 23/63/136 22/66/137 21/62/138
f 27/91/139 85/90/140 87/97/141 32/98/142 26/99/143
f 32/47/144 87/95/145 41/96/146 37/40/147
f 11/56/148 10/57/149 16/58/150
f 28/54/151 29/69/152 35/70/153
f 47/103/154 46/102/155 45/101/156 44/100/157
f 48/104/158 51/107/159 50/106/160 49/105/161
f 51/107/162 53/109/163 52/108/164 50/106/165
f 55/113/166 54/112/167 46/111/168 47/110/169
f 50/114/170 57/117/171 56/116/172 49/115/173
f 52/118/174 58/119/175 57/117/176 50/114/177
f 47/120/178 49/123/179 60/122/180 59/121/181
f 59/121/182 61/125/183 55/124/184 47/120/185
f 62/127/186 60/122/187 49/123/188 56/126/189
f 55/128/190 61/130/191 54/129/192
f 63/134/193 62/133/194 57/132/195 58/131/196
f 44/138/197 43/137/198 42/136/199 48/135/200
f 42/136/201 64/140/202 51/139/203 48/135/204
f 64/140/205 38/142/206 53/141/207 51/139/208
f 39/144/209 43/137/210 44/138/211 45/143/212
f 45/101/213 46/102/214 66/146/215 65/145/216
f 67/147/217 70/150/218 69/149/219 68/148/220
f 68/148/221 69/149/222 72/152/223 71/151/224
f 46/111/225 54/112/226 73/154/227 66/153/228
f 69/155/229 70/158/230 75/157/231 74/156/232
f 72/159/233 69/155/234 74/156/235 76/160/236
f 77/161/237 78/164/238 70/163/239 66/162/240
f 73/166/241 79/165/242 77/161/243 66/162/244
f 70/163/245 78/164/246 80/168/247 75/167/248
f 79/169/249 54/129/250 61/130/251
f 74/170/252 75/172/253 80/171/254
f 76/173/255 74/170/256 80/171/257 81/174/258
f 83/178/259 82/177/260 65/176/261 67/175/262
f 68/180/263 84/179/264 83/178/265 67/175/266
f 71/182/267 85/181/268 84/179/269 68/180/270
f 65/176/271 82/177/272 39/144/273 45/143/274
f 53/141/275 38/142/276 40/185/277 58/184/278 52/183/279
f 40/189/280 86/188/281 63/187/282 58/186/283
f 47/103/284 44/100/285 48/104/286 49/105/287
f 70/150/288 67/147/289 65/145/290 66/146/291
f 71/182/292 72/192/293 76/191/294 87/190/295 85/181/296
f 41/196/297 87/195/298 76/194/299 81/193/300
f 57/132/301 62/133/302 56/197/303
f 54/129/304 79/169/305 73/198/306
